<svg xmlns="http://www.w3.org/2000/svg" viewBox="0 0 491.63 75.32"><defs><style>.cls-1{fill:#fff;}.cls-2{fill:#0394ab;}</style></defs><title>logo_centralcertFichier 1</title><g id="Calque_2" data-name="Calque 2"><g id="Calque_1-2" data-name="Calque 1"><path class="cls-1" d="M92.75,61.36q-12.6,0-19.19-7T67,34.46A30.66,30.66,0,0,1,69,23a24.7,24.7,0,0,1,5.51-8.49,23.07,23.07,0,0,1,8.35-5.25,30.14,30.14,0,0,1,10.5-1.79,33.86,33.86,0,0,1,6,.48A40.42,40.42,0,0,1,104,9.09a23.58,23.58,0,0,1,3.35,1.3c.89.45,1.54.8,1.94,1l-3.36,9.39a27.45,27.45,0,0,0-5.55-2.16,26.28,26.28,0,0,0-7.19-.9,15.79,15.79,0,0,0-5.25.9,11.82,11.82,0,0,0-4.54,2.86,14.21,14.21,0,0,0-3.17,5.11A21.28,21.28,0,0,0,79,34.24a27.23,27.23,0,0,0,.78,6.67,14.05,14.05,0,0,0,2.53,5.32,12.25,12.25,0,0,0,4.58,3.54,16.33,16.33,0,0,0,6.86,1.31,30.94,30.94,0,0,0,4.54-.3,34.33,34.33,0,0,0,3.58-.71,18.53,18.53,0,0,0,2.76-.93l2.16-1,3.2,9.31a27.18,27.18,0,0,1-6.93,2.69A40.57,40.57,0,0,1,92.75,61.36Z"/><path class="cls-1" d="M114,41a24.13,24.13,0,0,1,1.6-9.13,19.57,19.57,0,0,1,4.21-6.52,17.6,17.6,0,0,1,6-3.95,18.86,18.86,0,0,1,7-1.34q8.34,0,13.19,5.11t4.84,15c0,.64,0,1.35-.07,2.12s-.1,1.46-.15,2H125.38a7.37,7.37,0,0,0,3.21,5.44,12.87,12.87,0,0,0,7.6,2,31.42,31.42,0,0,0,6-.56A22.16,22.16,0,0,0,147,49.88l1.49,9a14.6,14.6,0,0,1-2.38.89,32.58,32.58,0,0,1-3.32.79c-1.22.22-2.52.41-3.91.56a41.6,41.6,0,0,1-4.17.22,24.6,24.6,0,0,1-9.21-1.57A18,18,0,0,1,119,55.51a17,17,0,0,1-3.8-6.44A25.57,25.57,0,0,1,114,41Zm26.08-4.25a11.74,11.74,0,0,0-.48-2.76,7.09,7.09,0,0,0-1.27-2.38,6.69,6.69,0,0,0-2.16-1.71,7,7,0,0,0-3.24-.67,7.53,7.53,0,0,0-3.21.63,6.5,6.5,0,0,0-2.23,1.68A7.31,7.31,0,0,0,126.09,34a16.31,16.31,0,0,0-.71,2.79Z"/><path class="cls-1" d="M159.36,22.47a64.39,64.39,0,0,1,16.69-2.24,23.12,23.12,0,0,1,8.31,1.3,12.47,12.47,0,0,1,5.25,3.69,14.47,14.47,0,0,1,2.76,5.66,30.5,30.5,0,0,1,.82,7.31V60.32H182.08V39.53q0-5.37-1.41-7.6t-5.29-2.24c-.8,0-1.64,0-2.54.11s-1.68.17-2.38.27V60.32h-11.1Z"/><path class="cls-1" d="M202.87,11.36,214,9.58V21.12h13.34v9.24H214V44.15a11,11,0,0,0,1.23,5.59q1.23,2.09,5,2.08a21.61,21.61,0,0,0,3.69-.33,20.23,20.23,0,0,0,3.46-.93l1.56,8.64a30.16,30.16,0,0,1-4.47,1.41,25.87,25.87,0,0,1-6,.6A19.9,19.9,0,0,1,210.84,60a11.88,11.88,0,0,1-4.77-3.43,12.73,12.73,0,0,1-2.49-5.32,31.61,31.61,0,0,1-.71-6.93Z"/><path class="cls-1" d="M259.94,31c-1-.25-2.16-.51-3.5-.78a21.13,21.13,0,0,0-4.32-.41,20.75,20.75,0,0,0-2.5.18,15.24,15.24,0,0,0-2.19.41v30H236.32V23.21a68.11,68.11,0,0,1,7.05-2,40.52,40.52,0,0,1,9-.94q.89,0,2.16.12c.84.07,1.69.17,2.53.29s1.69.28,2.54.45a13.48,13.48,0,0,1,2.16.63Z"/><path class="cls-1" d="M281.1,20.08a25.6,25.6,0,0,1,8.2,1.12,12.6,12.6,0,0,1,5.25,3.2,11.77,11.77,0,0,1,2.8,5.07,25.28,25.28,0,0,1,.82,6.63V59.2q-2.39.52-6.63,1.23a64,64,0,0,1-10.29.71,33.06,33.06,0,0,1-6.89-.67,15,15,0,0,1-5.33-2.2,10,10,0,0,1-3.42-4,13.67,13.67,0,0,1-1.2-6,11.45,11.45,0,0,1,1.38-5.82,10.67,10.67,0,0,1,3.69-3.8,16.67,16.67,0,0,1,5.29-2A29.21,29.21,0,0,1,281,36a33.42,33.42,0,0,1,3.83.19,16.39,16.39,0,0,1,2.72.48v-1A6.17,6.17,0,0,0,285.8,31q-1.71-1.71-6-1.71a38.42,38.42,0,0,0-5.59.41,24.2,24.2,0,0,0-4.77,1.15l-1.41-8.94c.64-.19,1.45-.41,2.42-.63s2-.42,3.16-.6,2.35-.32,3.62-.44A37.35,37.35,0,0,1,281.1,20.08Zm.9,32.49c1.09,0,2.13,0,3.13-.08a21.67,21.67,0,0,0,2.38-.22V43.85a20.18,20.18,0,0,0-2-.3A22.15,22.15,0,0,0,283,43.4a22.7,22.7,0,0,0-2.94.19,7.47,7.47,0,0,0-2.42.71A4.05,4.05,0,0,0,276,45.71a3.94,3.94,0,0,0-.6,2.24,3.79,3.79,0,0,0,1.75,3.61A9.69,9.69,0,0,0,282,52.57Z"/><path class="cls-1" d="M323.87,61.06A28,28,0,0,1,316,60a11.7,11.7,0,0,1-4.77-2.72,9.05,9.05,0,0,1-2.38-4.25,23,23,0,0,1-.63-5.62V4.29l11.1-1.79V45.19a14.52,14.52,0,0,0,.22,2.68,4.49,4.49,0,0,0,.86,2,4.55,4.55,0,0,0,1.82,1.35,10.32,10.32,0,0,0,3.21.67Z"/><path class="cls-2" d="M367.94,61.36q-12.58,0-19.19-7t-6.59-19.9a30.66,30.66,0,0,1,2-11.44,24.57,24.57,0,0,1,5.52-8.49A23,23,0,0,1,358,9.28a30.16,30.16,0,0,1,10.51-1.79,34,34,0,0,1,6,.48,40.22,40.22,0,0,1,4.69,1.12,23.58,23.58,0,0,1,3.35,1.3c.9.45,1.54.8,1.94,1l-3.35,9.39a27.45,27.45,0,0,0-5.55-2.16,26.33,26.33,0,0,0-7.19-.9,15.75,15.75,0,0,0-5.25.9,11.86,11.86,0,0,0-4.55,2.86,14.35,14.35,0,0,0-3.17,5.11,21.5,21.5,0,0,0-1.19,7.6,27.23,27.23,0,0,0,.78,6.67,14.22,14.22,0,0,0,2.54,5.32,12.09,12.09,0,0,0,4.58,3.54A16.29,16.29,0,0,0,369,51.08a31.08,31.08,0,0,0,4.55-.3,35.41,35.41,0,0,0,3.58-.71,18,18,0,0,0,2.75-.93c.8-.35,1.52-.67,2.16-1l3.21,9.31a27.18,27.18,0,0,1-6.93,2.69A40.65,40.65,0,0,1,367.94,61.36Z"/><path class="cls-2" d="M389.18,41a23.94,23.94,0,0,1,1.6-9.13A19.57,19.57,0,0,1,395,25.37a17.6,17.6,0,0,1,6-3.95,18.84,18.84,0,0,1,7-1.34q8.35,0,13.19,5.11t4.84,15c0,.64,0,1.35-.07,2.12s-.1,1.46-.15,2H400.58a7.33,7.33,0,0,0,3.2,5.44,12.89,12.89,0,0,0,7.6,2,31.45,31.45,0,0,0,6-.56,22.22,22.22,0,0,0,4.8-1.38l1.49,9a14.25,14.25,0,0,1-2.38.89,32,32,0,0,1-3.32.79c-1.21.22-2.52.41-3.91.56a41.6,41.6,0,0,1-4.17.22,24.54,24.54,0,0,1-9.2-1.57,17.85,17.85,0,0,1-6.48-4.28,16.91,16.91,0,0,1-3.8-6.44A25.57,25.57,0,0,1,389.18,41Zm26.07-4.25a11.74,11.74,0,0,0-.48-2.76,6.92,6.92,0,0,0-1.27-2.38,6.69,6.69,0,0,0-2.16-1.71,7,7,0,0,0-3.24-.67,7.46,7.46,0,0,0-3.2.63,6.54,6.54,0,0,0-2.24,1.68A7.67,7.67,0,0,0,401.28,34a16.28,16.28,0,0,0-.7,2.79Z"/><path class="cls-2" d="M458.17,31c-1-.25-2.16-.51-3.5-.78a21.13,21.13,0,0,0-4.32-.41,20.75,20.75,0,0,0-2.5.18,15.43,15.43,0,0,0-2.2.41v30h-11.1V23.21a68.58,68.58,0,0,1,7-2,40.67,40.67,0,0,1,9.06-.94q.89,0,2.16.12c.84.07,1.69.17,2.53.29s1.69.28,2.53.45a12.89,12.89,0,0,1,2.16.63Z"/><path class="cls-2" d="M465.62,11.36l11.1-1.78V21.12h13.34v9.24H476.72V44.15A11,11,0,0,0,478,49.74q1.23,2.09,5,2.08a21.61,21.61,0,0,0,3.69-.33,20.23,20.23,0,0,0,3.46-.93l1.57,8.64a30.16,30.16,0,0,1-4.47,1.41,26,26,0,0,1-6,.6A19.8,19.8,0,0,1,473.6,60a11.74,11.74,0,0,1-4.77-3.43,12.62,12.62,0,0,1-2.5-5.32,31.61,31.61,0,0,1-.71-6.93Z"/><path class="cls-2" d="M39.5,53.54V75.32l-10.06-8L19.66,75.1V53.62l1-.24,5,6.75a5,5,0,0,0,8.1,0l5-6.75Z"/><path class="cls-2" d="M59.08,32.39,51.7,24.58,56,14.72a1.5,1.5,0,0,0-1.21-2.1L44.08,11.38,41,1.08A.49.49,0,0,1,41,1l0,0,0-.08s0,0,0,0a.3.3,0,0,0,0-.08L40.8.66a.21.21,0,0,0,0-.06h0l0,0,0-.05L40.62.44,40.54.36l-.2-.14L40.13.11,40,.07l-.1,0h-.61l-.1,0-.12,0h0l-.1,0h0l0,0-.1,0-.12.07L34.41,3.09,29.75,6.16l-.33-.22L20.78.25A1.52,1.52,0,0,0,20,0h-.23l-.11,0H19.5l-.08,0-.07,0-.09,0-.18.11L19,.31l0,0h0l0,0,0,0h0l0,0a1.46,1.46,0,0,0-.16.19,2.25,2.25,0,0,0-.12.21,2.44,2.44,0,0,0-.1.24l-3.07,10.3L4.75,12.62a1.51,1.51,0,0,0-1.22,2.1l4.26,9.86L.41,32.39a1.52,1.52,0,0,0,.43,2.4l9.6,4.81-.34,5.86-.29,4.87a1.42,1.42,0,0,0,.12.68l.06.13.06.1a1.27,1.27,0,0,0,.21.25.12.12,0,0,0,.05,0l0,.05.12.09.13.07a.52.52,0,0,0,.13.06,1.4,1.4,0,0,0,.58.12h.16a.63.63,0,0,0,.19,0l4.46-1.06L19.66,50l2.46-.59L28.53,58l.12.14h0a1.49,1.49,0,0,0,.14.12l.09.08h0l.1.06.11.06.05,0,.08,0,.17.05a1.86,1.86,0,0,0,.34,0,2,2,0,0,0,.34,0l.16-.05.08,0,.06,0,.1-.06.11-.06h0a.39.39,0,0,0,.1-.08.74.74,0,0,0,.13-.12h0A.75.75,0,0,0,31,58l6.41-8.63,2.13.51h0l3.51.84,4.79,1.14a1.47,1.47,0,0,0,.36,0,1.52,1.52,0,0,0,1.51-1.6L49.05,39.6l9.61-4.81A1.52,1.52,0,0,0,59.08,32.39ZM29.75,37.68a8.24,8.24,0,0,1-3.33-.7,8.35,8.35,0,1,1,11-11,8.24,8.24,0,0,1,.69,3.33A8.36,8.36,0,0,1,29.75,37.68Z"/></g></g></svg>